<svg xmlns="http://www.w3.org/2000/svg" xmlns:xlink="http://www.w3.org/1999/xlink" version="1.1" id="saleOffer" x="0px" y="0px" viewBox="0 0 64 64" style="enable-background:new 0 0 64 64;" xml:space="preserve">
<linearGradient id="SVGID_1__48175" gradientUnits="userSpaceOnUse" x1="31.9997" y1="4" x2="31.9997" y2="59.9" spreadMethod="reflect">
	<stop offset="0" style="stop-color:#1A6DFF"></stop>
	<stop offset="1" style="stop-color:#C822FF"></stop>
</linearGradient>
<path style="fill:url(#SVGID_1__48175);" d="M32,58c-1.838,0-3.548-0.836-4.691-2.293c-1.662,0.899-3.562,1.017-5.259,0.313  c-1.696-0.703-2.957-2.129-3.457-3.913c-1.879,0.2-3.679-0.424-4.978-1.723s-1.918-3.099-1.697-4.938  c-1.81-0.54-3.235-1.801-3.938-3.497c-0.704-1.697-0.586-3.597,0.321-5.212C6.835,35.547,6,33.837,6,32s0.835-3.547,2.291-4.691  c-0.897-1.662-1.016-3.562-0.312-5.259c0.703-1.696,2.129-2.957,3.911-3.457c-0.193-1.879,0.426-3.679,1.725-4.978  s3.097-1.921,4.938-1.697c0.54-1.81,1.801-3.235,3.497-3.938c1.698-0.701,3.597-0.585,5.212,0.321C28.452,6.836,30.162,6,32,6  s3.548,0.836,4.691,2.293c1.661-0.899,3.561-1.017,5.259-0.313c1.696,0.703,2.957,2.129,3.457,3.913  c1.878-0.203,3.678,0.424,4.978,1.723c1.299,1.299,1.918,3.099,1.697,4.938c1.81,0.541,3.235,1.801,3.938,3.497  c0.703,1.698,0.586,3.598-0.321,5.212C57.164,28.452,58,30.162,58,32s-0.836,3.548-2.293,4.691c0.899,1.661,1.017,3.561,0.313,5.259  c-0.703,1.696-2.129,2.956-3.912,3.457c0.194,1.879-0.425,3.679-1.724,4.978c-1.301,1.299-3.094,1.921-4.938,1.697  c-0.539,1.81-1.8,3.235-3.496,3.938s-3.597,0.585-5.212-0.321C35.547,57.165,33.837,58,32,58z M27.283,53.691  c0.605,0,1.197,0.271,1.598,0.78C29.643,55.443,30.78,56,32,56s2.356-0.557,3.119-1.527c0.621-0.794,1.716-1.018,2.6-0.517  c1.076,0.604,2.339,0.685,3.466,0.217c1.126-0.467,1.964-1.416,2.297-2.604c0.271-0.976,1.202-1.59,2.204-1.473  c1.225,0.148,2.422-0.263,3.285-1.125c0.862-0.862,1.272-2.06,1.125-3.285c-0.121-1.005,0.498-1.932,1.474-2.204  c1.188-0.334,2.137-1.171,2.604-2.297c0.467-1.127,0.388-2.391-0.218-3.466c-0.495-0.881-0.278-1.974,0.517-2.6  C55.443,34.356,56,33.22,56,32s-0.557-2.356-1.527-3.119c-0.796-0.626-1.013-1.719-0.517-2.6c0.604-1.075,0.684-2.339,0.217-3.466  c-0.467-1.126-1.416-1.963-2.605-2.297c-0.974-0.272-1.593-1.199-1.472-2.205c0.147-1.225-0.263-2.422-1.125-3.284  c-0.863-0.863-2.061-1.273-3.286-1.125c-1.003,0.112-1.932-0.499-2.203-1.474c-0.333-1.188-1.171-2.137-2.297-2.604  c-1.127-0.467-2.39-0.387-3.466,0.218c-0.881,0.493-1.976,0.279-2.601-0.518C34.356,8.557,33.219,8,32,8s-2.356,0.557-3.119,1.527  c-0.625,0.797-1.719,1.014-2.6,0.517c-1.076-0.604-2.34-0.683-3.466-0.217c-1.126,0.467-1.964,1.416-2.297,2.604  c-0.273,0.976-1.212,1.591-2.205,1.473c-1.229-0.156-2.423,0.263-3.284,1.125c-0.862,0.862-1.272,2.06-1.125,3.285  c0.119,1.006-0.501,1.933-1.475,2.204c-1.187,0.333-2.136,1.171-2.603,2.297c-0.467,1.127-0.388,2.39,0.218,3.466  c0.495,0.882,0.277,1.975-0.519,2.6C8.556,29.644,8,30.78,8,32s0.557,2.356,1.527,3.119c0.795,0.625,1.013,1.718,0.517,2.6  c-0.604,1.076-0.684,2.339-0.217,3.466c0.467,1.126,1.416,1.964,2.604,2.297c0.973,0.271,1.592,1.198,1.473,2.203  c-0.147,1.227,0.263,2.424,1.125,3.286s2.058,1.267,3.285,1.125c0.993-0.112,1.931,0.497,2.204,1.472  c0.333,1.189,1.171,2.139,2.297,2.605c1.127,0.468,2.391,0.388,3.466-0.218C26.598,53.777,26.943,53.691,27.283,53.691z"></path>
<linearGradient id="SVGID_2__48175" gradientUnits="userSpaceOnUse" x1="23.9997" y1="4" x2="23.9997" y2="59.9" spreadMethod="reflect">
	<stop offset="0" style="stop-color:#1A6DFF"></stop>
	<stop offset="1" style="stop-color:#C822FF"></stop>
</linearGradient>
<path style="fill:url(#SVGID_2__48175);" d="M24,30c-2.757,0-5-2.243-5-5s2.243-5,5-5s5,2.243,5,5S26.757,30,24,30z M24,22  c-1.654,0-3,1.346-3,3s1.346,3,3,3s3-1.346,3-3S25.654,22,24,22z"></path>
<linearGradient id="SVGID_3__48175" gradientUnits="userSpaceOnUse" x1="31.9997" y1="4" x2="31.9997" y2="59.9" spreadMethod="reflect">
	<stop offset="0" style="stop-color:#1A6DFF"></stop>
	<stop offset="1" style="stop-color:#C822FF"></stop>
</linearGradient>
<polygon style="fill:url(#SVGID_3__48175);" points="22.289,46.114 20.711,44.886 41.711,17.886 43.289,19.114 "></polygon>
<linearGradient id="SVGID_4__48175" gradientUnits="userSpaceOnUse" x1="39.9997" y1="4" x2="39.9997" y2="59.9" spreadMethod="reflect">
	<stop offset="0" style="stop-color:#1A6DFF"></stop>
	<stop offset="1" style="stop-color:#C822FF"></stop>
</linearGradient>
<path style="fill:url(#SVGID_4__48175);" d="M40,44c-2.757,0-5-2.243-5-5s2.243-5,5-5s5,2.243,5,5S42.757,44,40,44z M40,36  c-1.654,0-3,1.346-3,3s1.346,3,3,3s3-1.346,3-3S41.654,36,40,36z"></path>
<linearGradient id="SVGID_5__48175" gradientUnits="userSpaceOnUse" x1="39.9996" y1="35.4167" x2="39.9996" y2="42.6839" spreadMethod="reflect">
	<stop offset="0" style="stop-color:#6DC7FF"></stop>
	<stop offset="1" style="stop-color:#E6ABFF"></stop>
</linearGradient>
<circle style="fill:url(#SVGID_5__48175);" cx="40" cy="39" r="3"></circle>
<linearGradient id="SVGID_6__48175" gradientUnits="userSpaceOnUse" x1="23.9996" y1="21.5" x2="23.9996" y2="28.5" spreadMethod="reflect">
	<stop offset="0" style="stop-color:#6DC7FF"></stop>
	<stop offset="1" style="stop-color:#E6ABFF"></stop>
</linearGradient>
<circle style="fill:url(#SVGID_6__48175);" cx="24" cy="25" r="3"></circle>
</svg>